<?xml version="1.0" standalone="no"?>
<!DOCTYPE svg PUBLIC "-//W3C//DTD SVG 20010904//EN"
 "http://www.w3.org/TR/2001/REC-SVG-20010904/DTD/svg10.dtd">
<svg version="1.0" xmlns="http://www.w3.org/2000/svg"
 width="16.000000pt" height="16.000000pt" viewBox="0 0 16.000000 16.000000"
 preserveAspectRatio="xMidYMid meet">
<metadata>
Created by potrace 1.11, written by Peter Selinger 2001-2013
</metadata>
<g transform="translate(0.000000,16.000000) scale(0.008377,-0.008377)"
fill="#000000" stroke="none">
<path d="M1031 1899 c-141 -28 -295 -108 -381 -200 l-26 -27 -28 54 c-32 60
-75 103 -139 136 -33 17 -60 22 -122 22 -94 1 -165 -26 -227 -88 -77 -76 -72
-26 -73 -744 -1 -691 -2 -684 50 -712 29 -16 70 -16 99 -1 47 26 50 43 52 266
0 116 4 224 8 242 8 35 57 73 95 73 42 0 100 -45 102 -79 1 -9 2 -200 2 -426
l2 -410 513 -3 512 -2 0 595 c0 655 -2 637 60 667 25 12 40 13 72 5 76 -19 73
10 74 -630 l1 -569 30 -30 c51 -51 139 -35 164 30 16 41 7 1335 -10 1387 -69
221 -237 370 -485 431 -71 18 -281 26 -345 13z m202 -299 c14 -11 29 -32 34
-47 7 -22 11 -658 4 -752 -2 -27 -46 -68 -82 -75 -35 -7 -80 13 -103 46 -14
19 -16 74 -16 396 0 255 4 380 11 395 29 57 103 75 152 37z m398 -61 c29 -15
50 -64 44 -101 -8 -46 -56 -88 -101 -88 -45 0 -104 54 -104 94 0 85 86 135
161 95z m-811 -286 c16 -9 33 -27 39 -39 6 -14 10 -157 11 -383 0 -298 -2
-367 -14 -396 -31 -74 -135 -81 -177 -11 -18 29 -19 54 -19 401 0 395 0 393
50 432 22 18 77 16 110 -4z m-432 -37 c72 -37 70 -146 -4 -181 -51 -24 -104
-7 -130 42 -26 49 -20 85 17 123 34 34 73 39 117 16z m839 -596 c43 -26 49
-54 48 -221 -1 -124 -3 -141 -21 -166 -27 -36 -81 -51 -124 -33 -52 21 -60 51
-60 218 0 137 2 151 21 176 38 48 85 57 136 26z m-387 -350 c31 -35 35 -71 15
-110 -49 -95 -190 -62 -190 44 0 98 111 140 175 66z"/>
<path d="M78 193 c-47 -29 -60 -81 -33 -133 39 -75 143 -71 180 6 43 91 -60
181 -147 127z"/>
</g>
</svg>
